<svg width="120" height="120" viewBox="0 0 120 120" fill="none" xmlns="http://www.w3.org/2000/svg">
  <circle cx="60" cy="60" r="58" fill="#fff" stroke="#1976d2" stroke-width="4"/>
  <g>
    <!-- Inspiration: glyphs, circuit, speech bubble -->
    <path d="M40 80 Q30 60 40 40 Q60 20 80 40 Q90 60 80 80 Q60 100 40 80 Z" fill="#ffe082" stroke="#1976d2" stroke-width="3"/>
    <path d="M60 40 Q65 60 60 80 Q55 60 60 40 Z" fill="#1976d2" fill-opacity="0.2"/>
    <circle cx="60" cy="60" r="8" fill="#1976d2"/>
    <!-- Circuit lines for AI -->
    <line x1="60" y1="20" x2="60" y2="35" stroke="#1976d2" stroke-width="2"/>
    <circle cx="60" cy="20" r="3" fill="#1976d2"/>
    <line x1="100" y1="60" x2="85" y2="60" stroke="#1976d2" stroke-width="2"/>
    <circle cx="100" cy="60" r="3" fill="#1976d2"/>
    <line x1="60" y1="100" x2="60" y2="85" stroke="#1976d2" stroke-width="2"/>
    <circle cx="60" cy="100" r="3" fill="#1976d2"/>
    <line x1="20" y1="60" x2="35" y2="60" stroke="#1976d2" stroke-width="2"/>
    <circle cx="20" cy="60" r="3" fill="#1976d2"/>
    <!-- Speech bubble tail -->
    <path d="M80 80 Q100 110 60 100" stroke="#1976d2" stroke-width="2" fill="none"/>
  </g>
  <text x="60" y="115" text-anchor="middle" font-size="16" fill="#1976d2" font-family="Arial, sans-serif">MayaVoice</text>
</svg>
